<svg xmlns="http://www.w3.org/2000/svg" viewBox="0 0 1600 700">
  <defs>
    <linearGradient id="a" x1="0" x2="1" y1="0" y2="1">
      <stop offset="0%" stop-color="#ffb15c"/>
      <stop offset="60%" stop-color="#a1461c"/>
      <stop offset="100%" stop-color="#130d18"/>
    </linearGradient>
  </defs>
  <rect width="1600" height="700" fill="url(#a)"/>
  <circle cx="1140" cy="170" r="130" fill="#ffdc8c" opacity="0.7"/>
  <path d="M0 470 C250 420 410 590 660 520 C900 450 1020 300 1600 390 L1600 700 L0 700 Z" fill="#120b10" opacity="0.9"/>
  <path d="M860 490 C930 390 1000 360 1110 350 C1030 420 1000 500 1020 650 L900 650 C900 560 885 525 860 490Z" fill="#231319" opacity="0.85"/>
  <path d="M690 390 C740 390 760 430 760 500 C735 495 710 480 680 450 C660 430 650 390 690 390Z" fill="#2b161a" opacity="0.95"/>
</svg>
